<svg viewBox="0 0 735.53 222.26" xmlns="http://www.w3.org/2000/svg">
  <defs>
    <style>
      .a{fill:#4d77cf}.b{fill:#4dabcf}
    </style>
  </defs>
  <g transform="translate(-44 -51.24)">
    <polygon class="b" points="92.63 117.15 132.38 96.4 95.25 77.66 54.49 98"/>
    <polygon class="b" points="147.95 144.93 109.75 125.75 149.41 104.99 188.34 124.65"/>
    <polygon class="b" points="205.63 115.96 166.62 96.28 201.41 77.94 241.41 98"/>
    <polygon class="b" points="112.56 69.02 149.67 87.73 184.19 69.3 148.18 51.24"/>
    <polygon class="b" points="199.66 251.73 199.62 202.57 156.04 224.36 156.04 273.5"/>
    <polygon class="b" points="156.04 158.4 156.04 207.06 199.6 185.41 199.55 136.77"/>
    <polygon class="b" points="214.76 244.19 214.73 195.09 251.97 176.3 251.97 225.63"/>
    <polygon class="b" points="214.69 129.24 214.72 177.98 251.97 159.05 251.97 110.71"/>
    <path class="a" d="m140.64 158.4-29.38-14.78v63.84S75.32 131 72 124.13c-.43-.89-2.19-1.86-2.64-2.1A3970.52 3970.52 0 0 0 44 109.09v112.83l26.12 14v-59s35.55 68.32 35.92 69.07c.37.75 3.92 7.94 7.74 10.47 5.07 3.37 26.84 16.46 26.84 16.46z"/>
  </g>
  <path class="a" d="M251.8 73.67q1.3 0 2.2.12.89.12 1.6.48.71.3 1.37.89.65.6 1.49 1.6l41.17 52.07q-.24-2.5-.36-4.82-.12-2.38-.12-4.46V73.67h17.74v86.7H306.4q-2.32 0-3.92-.72-1.55-.77-3.1-2.62l-40.87-51.65q.17 2.27.3 4.47.11 2.14.11 4.04v46.47H241.2V73.67zm96.38 25v39.14q0 4.58 2.08 7.08 2.09 2.5 6.13 2.5 3.04 0 5.66-1.25 2.67-1.25 5.17-3.5V98.65h18.45v61.7h-11.43q-3.45 0-4.52-3.1l-1.13-3.56q-1.78 1.72-3.69 3.15-1.9 1.37-4.1 2.38-2.15.95-4.64 1.49-2.5.6-5.48.6-5.06 0-8.98-1.73-3.87-1.79-6.55-4.94-2.68-3.15-4.04-7.44-1.37-4.28-1.37-9.4V98.66zm49.98 61.7v-61.7h11.43q3.45 0 4.52 3.09l1.01 3.33q1.55-1.6 3.21-2.92 1.67-1.37 3.57-2.32 1.97-1.01 4.17-1.55 2.26-.6 4.94-.6 5.59 0 9.22 2.92 3.69 2.86 5.6 7.68 1.54-2.86 3.74-4.88 2.26-2.02 4.82-3.27 2.62-1.25 5.47-1.85 2.92-.6 5.78-.6 5.3 0 9.4 1.62 4.1 1.54 6.84 4.58 2.8 2.97 4.22 7.38 1.43 4.34 1.43 9.87v39.21H469.1v-39.2q0-9.59-8.21-9.59-3.75 0-6.25 2.5-2.44 2.44-2.44 7.08v39.21h-18.45v-39.2q0-5.3-2.08-7.45-2.08-2.14-6.13-2.14-2.5 0-4.76 1.13-2.2 1.13-4.16 3.04v44.62zm151.79-86.7v15.95h-24.4v70.74h-20.1V89.62h-24.4V73.67zm23.86 102.7q-.84 1.84-2.03 2.68-1.19.89-3.8.89h-13.8l11.9-25-24.64-56.28h16.3q2.14 0 3.27.95 1.2.96 1.73 2.26l10.11 26.6q1.43 3.69 2.32 7.38.6-1.9 1.25-3.75l1.43-3.75 9.16-26.48q.54-1.36 1.9-2.26 1.38-.95 2.98-.95h14.88zm38.37 3.57V98.66h11.43q3.45 0 4.52 3.1l1.37 4.52q1.78-1.97 3.8-3.57 2.09-1.6 4.4-2.74 2.39-1.19 5.07-1.84 2.73-.66 5.95-.66 4.82 0 8.92 2.14 4.1 2.15 7.08 6.2 2.98 4.04 4.64 9.93 1.73 5.83 1.73 13.27 0 6.96-1.97 12.85-1.9 5.89-5.41 10.23-3.45 4.35-8.33 6.79-4.82 2.43-10.71 2.43-4.82 0-8.1-1.36-3.26-1.37-5.94-3.7v23.69zm30.11-68.37q-2.02 0-3.69.42-1.6.36-3.03 1.07-1.37.71-2.56 1.84-1.2 1.08-2.38 2.5v26.18q2.08 2.32 4.52 3.28 2.44.89 5.12.89 2.56 0 4.7-1.01t3.69-3.22q1.6-2.26 2.5-5.83.89-3.57.89-8.68 0-4.88-.72-8.21-.71-3.34-2.02-5.36-1.25-2.08-3.03-2.97-1.79-.9-3.99-.9zm65.51-13.86q6.13 0 11.19 1.9 5.11 1.9 8.74 5.54 3.7 3.63 5.71 8.92 2.09 5.24 2.09 11.9 0 2.08-.18 3.4-.18 1.3-.66 2.08-.47.77-1.3 1.07-.78.3-2.03.3h-35.58q.9 7.73 4.7 11.24 3.8 3.45 9.82 3.45 3.21 0 5.53-.77 2.32-.78 4.1-1.73l3.34-1.72q1.55-.78 3.21-.78 2.2 0 3.33 1.6l5.36 6.61q-2.86 3.28-6.19 5.36-3.27 2.02-6.78 3.21-3.45 1.13-6.96 1.55-3.45.47-6.6.47-6.5 0-12.2-2.08-5.66-2.14-9.94-6.3-4.23-4.17-6.72-10.36-2.44-6.19-2.44-14.4 0-6.18 2.08-11.72 2.14-5.53 6.07-9.7 3.98-4.16 9.58-6.6 5.65-2.44 12.73-2.44zm.36 12.73q-5.3 0-8.27 3.04-2.98 2.97-3.93 8.62h23.03q0-2.2-.6-4.28-.53-2.08-1.84-3.69-1.25-1.66-3.34-2.68-2.08-1-5.05-1z" aria-label="NumType"/>
</svg>
